<svg width="350" height="254" viewBox="0 0 350 254" fill="none" xmlns="http://www.w3.org/2000/svg">
<path d="M175 252.73C147.81 252.73 125.448 237.73 122.769 218.51C102.148 230.726 71.7199 229.857 52.4937 215.904C33.2676 201.952 32.0707 179.87 48.903 164.904C22.4196 162.96 1.75 146.732 1.75 127C1.75 107.268 22.4196 91.0396 48.9032 89.0948C32.0707 74.1303 33.2676 52.0482 52.4938 38.0954C71.72 24.1428 102.148 23.2741 122.769 35.4897C125.448 16.2702 147.81 1.27002 175 1.27002C202.19 1.27002 224.552 16.2702 227.23 35.4897C247.852 23.2741 278.28 24.1427 297.506 38.0954C316.732 52.0482 317.929 74.1303 301.097 89.0956C327.58 91.0396 348.25 107.268 348.25 127C348.25 146.732 327.58 162.96 301.097 164.904C317.929 179.87 316.732 201.952 297.506 215.904C278.28 229.857 247.852 230.726 227.232 218.51C224.552 237.73 202.19 252.73 175 252.73Z" fill="#F5BD33"/>
</svg>
