<svg width="1728" height="220" viewBox="0 0 1728 220" fill="none" xmlns="http://www.w3.org/2000/svg">
<path d="M0 134.407L41.16 110.711C82.32 87.3695 164.4 39.4445 247.2 35.007C329.16 30.5695 411.6 67.8445 493.2 72.9033C576 77.607 658.8 49.207 740.4 39.7108C822.84 30.5695 904.8 39.4445 987.6 53.9108C1069.68 67.8445 1152 87.3695 1234.8 72.9033C1316.52 58.9695 1399.2 11.0445 1480.8 1.90329C1563.48 -7.59296 1645.2 20.807 1687.2 35.007L1728 49.207V219.607H1686.84C1645.68 219.607 1563.6 219.607 1480.8 219.607C1398.84 219.607 1316.4 219.607 1234.8 219.607C1152 219.607 1069.2 219.607 987.6 219.607C905.16 219.607 823.2 219.607 740.4 219.607C658.32 219.607 576 219.607 493.2 219.607C411.48 219.607 328.8 219.607 247.2 219.607C164.52 219.607 82.8 219.607 40.8 219.607H0V134.407Z" fill="#61FFDE"/>
</svg>
