<svg width="1728" height="778" viewBox="0 0 1728 778" fill="none" xmlns="http://www.w3.org/2000/svg">
<path d="M1727.74 777.439C1674.56 751.717 1621.57 725.994 1565.52 712.941C1509.47 699.887 1450.55 699.503 1404.07 674.549C1357.39 649.402 1323.34 599.876 1276.86 567.243C1230.57 534.801 1172.03 519.445 1122.1 484.7C1072.18 450.147 1030.86 396.206 1034.87 334.779C1039.08 273.543 1088.63 204.822 1082.51 147.809C1076.38 90.7972 1014.6 45.3026 953 0H1727.74V777.439Z" fill="#61FFDE"/>
<path d="M0 0C56.2684 38.9697 112.321 78.1314 177.429 85.0423C242.752 91.9532 316.914 66.8052 378.787 76.9796C440.877 87.154 490.677 132.651 536.382 178.531C581.871 224.604 623.048 271.06 635.552 326.155C647.841 381.443 631.025 445.368 670.046 490.097C709.067 534.826 803.926 560.55 847.044 605.278C890.161 650.007 881.538 713.741 873.13 777.475H0V0Z" fill="#61FFDE"/>
</svg>