<svg xmlns="http://www.w3.org/2000/svg" fill="none" viewBox="0 0 600 600"><path fill="#ffa300" d="M55.2667 435.106C60.3462 465.696 67.2319 480.878 63.2247 517.282C62.6603 522.248 60.3463 536.132 44.9947 552.613C42.0599 555.773 12.2599 577.785 21.4595 580.833C49.6228 590.201 114.472 584.783 137.781 581.115C152.512 578.801 362.862 585.348 434.371 571.068C459.825 565.989 516.772 572.818 549.394 542.341C584.782 509.267 576.146 427.035 578.63 394.977C582.016 351.293 579.194 299.2 579.194 255.29C579.194 199.923 581.508 159.681 567.906 105.161C550.862 36.8689 472.411 19.2034 410.948 15.817C354.734 12.7128 300.383 13.7852 244.226 16.9458C212.394 18.6954 164.364 22.9848 135.298 37.4898C109.449 50.4144 86.76 67.4027 69.1509 90.2607C35.5694 133.945 37.4883 169.897 37.4883 221.99C37.4883 268.101 38.5042 315.736 43.5837 361.509C45.7849 381.545 51.9932 415.521 55.2667 435.106Z"></path></svg>